<svg width="1440" height="865" viewBox="0 0 1440 865" fill="none" xmlns="http://www.w3.org/2000/svg">
<g clip-path="url(#clip0_1_739)">
<rect width="1440" height="865" fill="#0D0D2B"/>
<rect x="461.326" y="417.799" width="120" height="997.881" transform="rotate(60 461.326 417.799)" fill="url(#paint0_linear_1_739)"/>
<path d="M1480.17 165.583C1497.41 195.442 1502.08 230.926 1493.15 264.23C1484.23 297.533 1462.44 325.928 1432.58 343.167C1402.72 360.406 1367.24 365.077 1333.94 356.154C1300.63 347.23 1272.24 325.442 1255 295.583L1367.58 230.583L1480.17 165.583Z" fill="url(#paint1_linear_1_739)"/>
<path d="M1526 678C1526 709.826 1513.36 740.348 1490.85 762.853C1468.35 785.357 1437.83 798 1406 798C1374.17 798 1343.65 785.357 1321.15 762.853C1298.64 740.348 1286 709.826 1286 678L1334 678C1334 697.096 1341.59 715.409 1355.09 728.912C1368.59 742.414 1386.9 750 1406 750C1425.1 750 1443.41 742.414 1456.91 728.912C1470.41 715.409 1478 697.096 1478 678H1526Z" fill="url(#paint2_linear_1_739)"/>
</g>
<defs>
<linearGradient id="paint0_linear_1_739" x1="521.326" y1="764.558" x2="521.326" y2="1415.68" gradientUnits="userSpaceOnUse">
<stop stop-color="white" stop-opacity="0"/>
<stop offset="1" stop-color="white" stop-opacity="0.1"/>
</linearGradient>
<linearGradient id="paint1_linear_1_739" x1="1275.28" y1="312.05" x2="1443.42" y2="312.05" gradientUnits="userSpaceOnUse">
<stop stop-color="white" stop-opacity="0.08"/>
<stop offset="1" stop-color="#35068C" stop-opacity="0.01"/>
</linearGradient>
<linearGradient id="paint2_linear_1_739" x1="1294.61" y1="700.526" x2="1429.02" y2="778.126" gradientUnits="userSpaceOnUse">
<stop offset="0.0625" stop-color="white" stop-opacity="0.08"/>
<stop offset="1" stop-color="white" stop-opacity="0"/>
</linearGradient>
<clipPath id="clip0_1_739">
<rect width="1440" height="865" fill="white"/>
</clipPath>
</defs>
</svg>
